<svg id="filled_outline" height="512" viewBox="0 0 512 512" width="512" xmlns="http://www.w3.org/2000/svg" data-name="filled outline"><path d="m88 416a8.00008 8.00008 0 0 1 -8-8v-64a40.04552 40.04552 0 0 1 40-40h24a8 8 0 0 1 0 16h-24a24.02718 24.02718 0 0 0 -24 24v64a8.00008 8.00008 0 0 1 -8 8z" fill="#ffa100"/><path d="m336 288v120 80h-16l-16-32-8-56v-104z" fill="#ffb401"/><path d="m360 16h16v24h-16z" fill="#ffb401"/><path d="m384 16h16v48h-16z" fill="#ffb401"/><path d="m424 88-8 24h-24l-16-16h-6.10986a28.923 28.923 0 0 1 -9.66014-1.66l-3.29 24.13-2.79 20.45v.01l-18.15 133.07v48l-40 24-1.6001 7.2-4.3999 19.8-10 45v72h-16l-16-32v-40l-8-64h-56l-32 48v88h-16l-16-32v-141.44a40.021 40.021 0 0 1 24.48-36.87l127.52-53.69 16.67993-47.66 7.08007-20.22 32.24-92.12-4.03-2.69a44.8253 44.8253 0 0 1 -19.97-37.31h24l24 16h40z" fill="#ffc431"/><path d="m240 352-24 48v88h-16l-16-32v-104z" fill="#ffa100"/><path d="m359.9998 56h8a8 8 0 0 1 8 8v8a0 0 0 0 1 0 0h-8a8 8 0 0 1 -8-8v-8a0 0 0 0 1 0 0z" fill="#f78e00"/><g fill="#ffa100"><path d="m168 304 16-8 16 8v16l-16 8-16-8z"/><path d="m120 344 16-8 16 8v16l-16 8-16-8z"/><path d="m232 304 16-8 16 8v16l-16 8-16-8z"/><path d="m320 160v16l-16 8-15.32-7.66 7.08-20.22 8.24-4.12z"/><path d="m356.94 118.47-2.79 20.45v.01l-10.15 5.07-16-8v-16l16-8z"/><path d="m264 256 16-8 16 8v16l-16 8-16-8z"/><path d="m304 216 16-8 16 8v16l-16 8-16-8z"/><path d="m296 304 16-8 16 8v16l-16 8-16-8z"/><path d="m200 256 16-8 16 8v16l-16 8-16-8z"/><path d="m294.4 351.2-4.4 19.8-10 5-16-8v-16l16-8z"/></g><path d="m367.99976 56h-8v8a8 8 0 0 0 8 8h8v-8a8 8 0 0 0 -8-8z"/><path d="m430.65625 83.5625-30.65625-45.98438v-21.57812h-16v16h-8v-16h-16v16h-5.57812l-21.98438-14.65625a8.00221 8.00221 0 0 0 -4.4375-1.34375h-24a8.00008 8.00008 0 0 0 -8 8 52.73475 52.73475 0 0 0 22.40527 43.19775l-52.7832 150.80713-124.249 52.31543a47.88435 47.88435 0 0 0 -28.3335 34.29846 40.0572 40.0572 0 0 0 -33.03957 39.38123v64a8 8 0 0 0 16 0v-64a24.03813 24.03813 0 0 1 16-22.62384v134.62384a7.99737 7.99737 0 0 0 .84473 3.57764l16 32a7.99869 7.99869 0 0 0 7.15527 4.42236h16a8.00008 8.00008 0 0 0 8-8v-85.57764l16-24.0003v77.57794a7.99583 7.99583 0 0 0 .84473 3.57764l16 32a7.99979 7.99979 0 0 0 7.15527 4.42236h16a8.00008 8.00008 0 0 0 8-8v-86.11133l11.33887-22.678 4.66113 37.28738v39.50195a7.99737 7.99737 0 0 0 .84473 3.57764l16 32a7.99869 7.99869 0 0 0 7.15527 4.42236h16a8.00008 8.00008 0 0 0 8-8v-71.12207l1.418-6.3811 6.66211 46.63452a8.00808 8.00808 0 0 0 .76465 2.44629l16 32a7.99979 7.99979 0 0 0 7.15524 4.42236h16a8.00008 8.00008 0 0 0 8-8v-215.457l22.998-168.65332q1.43261.10986 2.89062.11035h2.79785l13.65625 13.65674a8.00076 8.00076 0 0 0 5.65728 2.34323h24a8.00071 8.00071 0 0 0 7.58984-5.47021l8-24a8.00218 8.00218 0 0 0 -.93359-6.96729zm-126.65625 77.38184 8 4v6.11132l-8 4-5.44141-2.72076 3.678-10.50885zm-80 100v6.11132l-8 4-8-4v-7.42828l7.25586-3.055zm-96 88 8-4 8 4v6.11132l-8 4-8-4zm80.84473 47.478a7.99583 7.99583 0 0 0 -.84473 3.57766v80h-3.05566l-12.94434-25.88867v-94.11133h35.05591zm71.15527-29.36668-8-4v-6.11132l8-4 5.23535 2.61773-2.21875 9.98535zm24-52v-6.11132l8-4 8 4v6.11132l-8 4zm20.94434 164.94434-13.208-26.4165-7.73634-54.15186v-50.90222l24-14.3999v145.87048zm21.84619-346.33954-2.79053 1.3952-8-4v-6.11132l8-4 4.2356 2.11785zm63.44385-29.66046h-14.9209l-13.65625-13.65674a8.00076 8.00076 0 0 0 -5.65723-2.34326h-6.11133a20.82956 20.82956 0 0 1 -18.7334-11.57764l-14.31054 7.15528a36.85573 36.85573 0 0 0 14.65332 15.56054l-.97876 7.17713-2.94117-1.47058a8.00257 8.00257 0 0 0 -7.15624 0l-16 8a7.99967 7.99967 0 0 0 -4.42188 7.15527v16a7.99967 7.99967 0 0 0 4.42188 7.15527l16 8a8.00282 8.00282 0 0 0 3.57812.84473c.09741 0 .19434-.01324.292-.01678l-7.56006 55.43847-13.15381-6.577a8.00257 8.00257 0 0 0 -7.15624 0l-16 8a7.99967 7.99967 0 0 0 -4.42189 7.15531v16a7.99967 7.99967 0 0 0 4.42188 7.15527l16 8a8.00049 8.00049 0 0 0 7.15624 0l8.30176-4.15081-3.80664 27.91454a8.00934 8.00934 0 0 0 -.07324 1.081v23.05566l-12.42188-6.21093a8.00257 8.00257 0 0 0 -7.15624 0l-16 8a7.99967 7.99967 0 0 0 -4.42188 7.15527v16a7.99967 7.99967 0 0 0 4.42188 7.15527l8.78369 4.39185-9.32178 5.593a7.98509 7.98509 0 0 0 -2.61231 2.55121l-5.69336-2.84662a8.00257 8.00257 0 0 0 -7.15624 0l-16 8a7.99967 7.99967 0 0 0 -4.42188 7.15529v16a7.99967 7.99967 0 0 0 4.42188 7.15527l16 8a7.997 7.997 0 0 0 2.51147.76593l-6.74292 30.34345a7.98027 7.98027 0 0 0 -.19043 1.73535v64h-3.05566l-12.94434-25.88867v-38.11133a8.02594 8.02594 0 0 0 -.06152-.99219l-8-64a8.00105 8.00105 0 0 0 -7.93848-7.00781h-56a7.99943 7.99943 0 0 0 -6.65625 3.5625l-32 48a7.99983 7.99983 0 0 0 -1.34375 4.4375v80h-3.05566l-12.94434-25.88867v-81.167l4.42188 2.21093a8.00049 8.00049 0 0 0 7.15624 0l16-8a7.99967 7.99967 0 0 0 4.42188-7.15526v-16a7.99967 7.99967 0 0 0 -4.42188-7.15527l-16-8a8.00257 8.00257 0 0 0 -7.15624 0l-4.42188 2.21093v-16.49658a31.9347 31.9347 0 0 1 19.582-29.49267l44.418-18.70221v5.6358a7.99967 7.99967 0 0 0 4.42188 7.15527l16 8a8.00049 8.00049 0 0 0 7.15624 0l16-8a7.99967 7.99967 0 0 0 4.42188-7.15527v-16a7.99967 7.99967 0 0 0 -4.42188-7.15527l-.90014-.45008 40.42651-17.0216a8.00041 8.00041 0 0 0 4.44629-4.73047l13.67922-39.08325 7.1919 3.59594a8.00049 8.00049 0 0 0 7.15624 0l16-8a7.99967 7.99967 0 0 0 4.42186-7.15527v-16a7.99967 7.99967 0 0 0 -4.42188-7.15527l-15.48779-7.7439 27.46045-78.45825a7.99877 7.99877 0 0 0 -3.11328-9.29932l-4.03125-2.68652a36.75866 36.75866 0 0 1 -15.53225-22.65674h12.7041l21.9844 14.65625a8.00221 8.00221 0 0 0 4.4375 1.34375h35.71875l27.4541 41.18213zm-82.23438 116.94434v6.11132l-8 4-8-4v-6.11132l8-4z"/><path d="m203.57812 296.84473-16-8a8.00257 8.00257 0 0 0 -7.15624 0l-16 8a7.99967 7.99967 0 0 0 -4.42188 7.15527v16a7.99967 7.99967 0 0 0 4.42188 7.15527l16 8a8.00049 8.00049 0 0 0 7.15624 0l16-8a7.99967 7.99967 0 0 0 4.42188-7.15527v-16a7.99967 7.99967 0 0 0 -4.42188-7.15527zm-11.57812 18.21093-8 4-8-4v-6.11132l8-4 8 4z"/><path d="m267.57812 296.84473-16-8a8.00257 8.00257 0 0 0 -7.15624 0l-16 8a7.99967 7.99967 0 0 0 -4.42188 7.15527v16a7.99967 7.99967 0 0 0 4.42188 7.15527l16 8a8.00049 8.00049 0 0 0 7.15624 0l16-8a7.99967 7.99967 0 0 0 4.42188-7.15527v-16a7.99967 7.99967 0 0 0 -4.42188-7.15527zm-11.57812 18.21093-8 4-8-4v-6.11132l8-4 8 4z"/><path d="m276.42188 240.84473-16 8a7.99967 7.99967 0 0 0 -4.42188 7.15527v16a7.99967 7.99967 0 0 0 4.42188 7.15527l16 8a8.00049 8.00049 0 0 0 7.15624 0l16-8a7.99967 7.99967 0 0 0 4.42188-7.15527v-16a7.99967 7.99967 0 0 0 -4.42188-7.15527l-16-8a8.00257 8.00257 0 0 0 -7.15624 0zm11.57812 26.21093-8 4-8-4v-6.11132l8-4 8 4z"/></svg>